<svg xmlns="http://www.w3.org/2000/svg" xmlns:xlink="http://www.w3.org/1999/xlink" contentStyleType="text/css" data-diagram-type="DESCRIPTION" height="297px" preserveAspectRatio="none" style="width:185px;height:297px;background:#FFFFFF;" version="1.1" viewBox="0 0 185 297" width="185px" zoomAndPan="magnify"><defs/><g><!--entity ??--><g class="entity" data-entity=".." data-source-line="3" data-uid="ent0002" id="entity_.."><ellipse cx="19.9999" cy="118.87" fill="#F1F1F1" rx="8" ry="8" style="stroke:#181818;stroke-width:0.5;"/><path d="M19.9999,126.87 L19.9999,153.87 M6.9999,134.87 L32.9999,134.87 M19.9999,153.87 L6.9999,168.87 M19.9999,153.87 L32.9999,168.87" fill="none" style="stroke:#181818;stroke-width:0.5;"/><text fill="#000000" font-family="sans-serif" font-size="14" lengthAdjust="spacing" textLength="27.9999" x="6" y="183.3651">&#29992;&#25143;</text></g><!--entity ????--><g class="entity" data-entity="...." data-source-line="5" data-uid="ent0003" id="entity_...."><ellipse cx="136.5978" cy="20.5236" fill="#F1F1F1" rx="42.5978" ry="14.5236" style="stroke:#181818;stroke-width:0.5;"/><text fill="#000000" font-family="sans-serif" font-size="14" lengthAdjust="spacing" textLength="55.9998" x="108.5979" y="25.1721">&#20010;&#20154;&#20013;&#24515;</text></g><!--entity ????--><g class="entity" data-entity="...." data-source-line="6" data-uid="ent0005" id="entity_...."><ellipse cx="136.5978" cy="84.5236" fill="#F1F1F1" rx="42.5978" ry="14.5236" style="stroke:#181818;stroke-width:0.5;"/><text fill="#000000" font-family="sans-serif" font-size="14" lengthAdjust="spacing" textLength="55.9998" x="108.5979" y="89.1721">&#31038;&#32676;&#31649;&#29702;</text></g><!--entity ????--><g class="entity" data-entity="...." data-source-line="7" data-uid="ent0007" id="entity_...."><ellipse cx="136.5978" cy="148.5236" fill="#F1F1F1" rx="42.5978" ry="14.5236" style="stroke:#181818;stroke-width:0.5;"/><text fill="#000000" font-family="sans-serif" font-size="14" lengthAdjust="spacing" textLength="55.9998" x="108.5979" y="153.1721">&#27963;&#21160;&#31649;&#29702;</text></g><!--entity ????--><g class="entity" data-entity="...." data-source-line="8" data-uid="ent0009" id="entity_...."><ellipse cx="136.5978" cy="212.5236" fill="#F1F1F1" rx="42.5978" ry="14.5236" style="stroke:#181818;stroke-width:0.5;"/><text fill="#000000" font-family="sans-serif" font-size="14" lengthAdjust="spacing" textLength="55.9998" x="108.5979" y="217.1721">&#30003;&#35831;&#31649;&#29702;</text></g><!--entity ????--><g class="entity" data-entity="...." data-source-line="9" data-uid="ent0011" id="entity_...."><ellipse cx="136.5978" cy="276.5236" fill="#F1F1F1" rx="42.5978" ry="14.5236" style="stroke:#181818;stroke-width:0.5;"/><text fill="#000000" font-family="sans-serif" font-size="14" lengthAdjust="spacing" textLength="55.9998" x="108.5979" y="281.1721">&#31995;&#32479;&#35774;&#32622;</text></g><!--link ?? to ????--><g class="link" data-entity-1=".." data-entity-2="...." data-source-line="5" data-uid="lnk4" id="link_.._...."><path d="M34.39,127.78 C48.05,107.44 70.53,76.12 94,52.52 C100.81,45.67 104.2811,42.5612 111.6711,37.1112" fill="none" id="&#29992;&#25143;-to-&#20010;&#20154;&#20013;&#24515;" style="stroke:#181818;stroke-width:1;"/><polygon fill="#181818" points="116.5,33.55,106.8826,35.6726,112.476,36.5177,111.6308,42.111,116.5,33.55" style="stroke:#181818;stroke-width:1;"/></g><!--link ?? to ????--><g class="link" data-entity-1=".." data-entity-2="...." data-source-line="6" data-uid="lnk6" id="link_.._...."><path d="M34.15,141.17 C53.43,130.41 84.4009,113.1044 107.9409,99.9644" fill="none" id="&#29992;&#25143;-to-&#31038;&#32676;&#31649;&#29702;" style="stroke:#181818;stroke-width:1;"/><polygon fill="#181818" points="113.18,97.04,103.3718,97.9339,108.8141,99.477,107.271,104.9194,113.18,97.04" style="stroke:#181818;stroke-width:1;"/></g><!--link ?? to ????--><g class="link" data-entity-1=".." data-entity-2="...." data-source-line="7" data-uid="lnk8" id="link_.._...."><path d="M34.15,148.52 C48.61,148.52 66.59,148.52 87.61,148.52" fill="none" id="&#29992;&#25143;-to-&#27963;&#21160;&#31649;&#29702;" style="stroke:#181818;stroke-width:1;"/><polygon fill="#181818" points="93.61,148.52,84.61,144.52,88.61,148.52,84.61,152.52,93.61,148.52" style="stroke:#181818;stroke-width:1;"/></g><!--link ?? to ????--><g class="link" data-entity-1=".." data-entity-2="...." data-source-line="8" data-uid="lnk10" id="link_.._...."><path d="M34.15,155.86 C53.43,166.63 84.4019,183.9239 107.9419,197.0739" fill="none" id="&#29992;&#25143;-to-&#30003;&#35831;&#31649;&#29702;" style="stroke:#181818;stroke-width:1;"/><polygon fill="#181818" points="113.18,200,107.2736,192.1187,108.8149,197.5616,103.3721,199.1029,113.18,200" style="stroke:#181818;stroke-width:1;"/></g><!--link ?? to ????--><g class="link" data-entity-1=".." data-entity-2="...." data-source-line="9" data-uid="lnk12" id="link_.._...."><path d="M34.39,169.25 C48.05,189.59 70.53,220.91 94,244.52 C100.81,251.36 104.2843,254.4646 111.6743,259.9246" fill="none" id="&#29992;&#25143;-to-&#31995;&#32479;&#35774;&#32622;" style="stroke:#181818;stroke-width:1;"/><polygon fill="#181818" points="116.5,263.49,111.6383,254.9247,112.4786,260.5188,106.8844,261.359,116.5,263.49" style="stroke:#181818;stroke-width:1;"/></g><!--SRC=[oqbDAr4eoLSeoapFA558oInAJIx9pC_ZuafCBialKdW-PSMpZkrSN11QGLVNJa7ZoOvLJtRjUh9ZxTFzpPeeCi-Nx7k-RydpTGkVJsX3bNcsPVVJhXNOP9vFsVnY_NQiCfjtFzyz_yMwVS_thjC40000]--></g></svg>