<svg xmlns="http://www.w3.org/2000/svg" xmlns:xlink="http://www.w3.org/1999/xlink" contentStyleType="text/css" data-diagram-type="DESCRIPTION" height="86px" preserveAspectRatio="none" style="width:290px;height:86px;background:#FFFFFF;" version="1.1" viewBox="0 0 290 86" width="290px" zoomAndPan="magnify"><defs/><g><!--entity User--><g class="entity" data-entity="User" data-source-line="3" data-uid="ent0002" id="entity_User"><ellipse cx="19.9999" cy="14" fill="#F1F1F1" rx="8" ry="8" style="stroke:#181818;stroke-width:0.5;"/><path d="M19.9999,22 L19.9999,49 M6.9999,30 L32.9999,30 M19.9999,49 L6.9999,64 M19.9999,49 L32.9999,64" fill="none" style="stroke:#181818;stroke-width:0.5;"/><text fill="#000000" font-family="sans-serif" font-size="14" lengthAdjust="spacing" textLength="27.9999" x="6" y="78.4951">&#29992;&#25143;</text></g><!--entity login--><g class="entity" data-entity="login" data-source-line="5" data-uid="ent0003" id="entity_login"><ellipse cx="116.7989" cy="43.6536" fill="#F1F1F1" rx="22.7989" ry="14.5236" style="stroke:#181818;stroke-width:0.5;"/><text fill="#000000" font-family="sans-serif" font-size="14" lengthAdjust="spacing" textLength="27.9999" x="102.799" y="48.3021">&#32676;&#32842;</text></g><!--entity register--><g class="entity" data-entity="register" data-source-line="6" data-uid="ent0004" id="entity_register"><ellipse cx="242.1978" cy="43.6536" fill="#F1F1F1" rx="42.5978" ry="14.5236" style="stroke:#181818;stroke-width:0.5;"/><text fill="#000000" font-family="sans-serif" font-size="14" lengthAdjust="spacing" textLength="55.9998" x="214.1979" y="48.3021">&#32676;&#32842;&#28040;&#24687;</text></g><!--link User to login--><g class="link" data-entity-1="User" data-entity-2="login" data-source-line="8" data-uid="lnk5" id="link_User_login"><path d="M34.18,43.65 C49.55,43.65 69.18,43.65 87.63,43.65" fill="none" id="User-to-login" style="stroke:#181818;stroke-width:1;"/><polygon fill="#181818" points="93.63,43.65,84.63,39.65,88.63,43.65,84.63,47.65,93.63,43.65" style="stroke:#181818;stroke-width:1;"/></g><!--link login to register--><g class="link" data-entity-1="login" data-entity-2="register" data-source-line="9" data-uid="lnk6" id="link_login_register"><path d="M139.86,43.65 C156.29,43.65 173.22,43.65 193.12,43.65" fill="none" id="login-to-register" style="stroke:#181818;stroke-width:1;"/><polygon fill="#181818" points="199.12,43.65,190.12,39.65,194.12,43.65,190.12,47.65,199.12,43.65" style="stroke:#181818;stroke-width:1;"/></g><!--SRC=[oqbDAr4eoLSeoapFA558oInAJIx9pC_ZuafCBialKdW-PSMpZkqAYSKAeSMfHLnSfSMfoOd5gGfAp_SjUT7OfGIIoSbFpyn3btcshUDPutgmV55gUcPn2KWto0m5NLqxg1Om2UB2L000]--></g></svg>