<svg xmlns="http://www.w3.org/2000/svg" xmlns:xlink="http://www.w3.org/1999/xlink" contentStyleType="text/css" data-diagram-type="DESCRIPTION" height="349px" preserveAspectRatio="none" style="width:217px;height:349px;background:#FFFFFF;" version="1.1" viewBox="0 0 217 349" width="217px" zoomAndPan="magnify"><defs/><g><!--entity ??--><g class="entity" data-entity=".." data-source-line="3" data-uid="ent0002" id="entity_.."><ellipse cx="19.9999" cy="183.4" fill="#F1F1F1" rx="8" ry="8" style="stroke:#181818;stroke-width:0.5;"/><path d="M19.9999,191.4 L19.9999,218.4 M6.9999,199.4 L32.9999,199.4 M19.9999,218.4 L6.9999,233.4 M19.9999,218.4 L32.9999,233.4" fill="none" style="stroke:#181818;stroke-width:0.5;"/><text fill="#000000" font-family="sans-serif" font-size="14" lengthAdjust="spacing" textLength="27.9999" x="6" y="247.8951">&#29992;&#25143;</text></g><!--entity List--><g class="entity" data-entity="List" data-source-line="5" data-uid="ent0003" id="entity_List"><ellipse cx="153.4256" cy="233.0464" fill="#F1F1F1" rx="58.4256" ry="24.5064" style="stroke:#181818;stroke-width:0.5;"/><text fill="#000000" font-family="sans-serif" font-size="14" lengthAdjust="spacing" textLength="55.9998" x="125.4258" y="227.2829">&#27963;&#21160;&#21015;&#34920;</text><text fill="#000000" font-family="sans-serif" font-size="14" lengthAdjust="spacing" textLength="83.9996" x="111.4258" y="243.5798">&#26597;&#30475;&#27963;&#21160;&#20449;&#24687;</text></g><!--entity Search--><g class="entity" data-entity="Search" data-source-line="6" data-uid="ent0004" id="entity_Search"><ellipse cx="153.4323" cy="318.0546" fill="#F1F1F1" rx="50.3223" ry="25.0346" style="stroke:#181818;stroke-width:0.5;"/><text fill="#000000" font-family="sans-serif" font-size="14" lengthAdjust="spacing" textLength="55.9998" x="125.4325" y="313.0878">&#27963;&#21160;&#25628;&#32034;</text><text fill="#000000" font-family="sans-serif" font-size="14" lengthAdjust="spacing" textLength="69.9997" x="118.4325" y="329.3847">&#22810;&#26465;&#20214;&#26597;&#35810;</text></g><!--entity Register--><g class="entity" data-entity="Register" data-source-line="7" data-uid="ent0005" id="entity_Register"><ellipse cx="153.4278" cy="32.0473" fill="#F1F1F1" rx="42.5978" ry="26.0473" style="stroke:#181818;stroke-width:0.5;"/><text fill="#000000" font-family="sans-serif" font-size="14" lengthAdjust="spacing" textLength="55.9998" x="125.4279" y="28.5473">&#27963;&#21160;&#25253;&#21517;</text><text fill="#000000" font-family="sans-serif" font-size="14" lengthAdjust="spacing" textLength="55.9998" x="125.4279" y="44.8441">&#22635;&#20889;&#20449;&#24687;</text></g><!--entity CheckIn--><g class="entity" data-entity="CheckIn" data-source-line="8" data-uid="ent0006" id="entity_CheckIn"><ellipse cx="153.4349" cy="149.0533" fill="#F1F1F1" rx="40.4949" ry="24.8233" style="stroke:#181818;stroke-width:0.5;"/><text fill="#000000" font-family="sans-serif" font-size="14" lengthAdjust="spacing" textLength="55.9998" x="125.435" y="147.3358">&#27963;&#21160;&#31614;&#21040;</text><text fill="#000000" font-family="sans-serif" font-size="14" lengthAdjust="spacing" textLength="41.9998" x="132.435" y="163.6326">&#20108;&#32500;&#30721;</text></g><!--link ?? to List--><g class="link" data-entity-1=".." data-entity-2="List" data-source-line="10" data-uid="lnk7" id="link_.._List"><path d="M34.08,215.04 C49.02,217.31 68.4783,220.267 91.9283,223.837" fill="none" id="&#29992;&#25143;-to-List" style="stroke:#181818;stroke-width:1;"/><polygon fill="#181818" points="97.86,224.74,89.5645,219.431,92.917,223.9875,88.3605,227.3399,97.86,224.74" style="stroke:#181818;stroke-width:1;"/></g><!--link ?? to Search--><g class="link" data-entity-1=".." data-entity-2="Search" data-source-line="11" data-uid="lnk8" id="link_.._Search"><path d="M34.45,224.7 C49.15,237.33 73.46,257.98 95,275.05 C104.37,282.47 109.9802,286.7832 119.3402,293.7632" fill="none" id="&#29992;&#25143;-to-Search" style="stroke:#181818;stroke-width:1;"/><polygon fill="#181818" points="124.15,297.35,119.3264,288.7632,120.1418,294.361,114.544,295.1763,124.15,297.35" style="stroke:#181818;stroke-width:1;"/></g><!--link ?? to Register--><g class="link" data-entity-1=".." data-entity-2="Register" data-source-line="12" data-uid="lnk9" id="link_.._Register"><path d="M34.38,193.33 C49.01,171.9 73.27,136.76 95,107.05 C107.78,89.57 118.9715,74.9201 130.3715,60.2301" fill="none" id="&#29992;&#25143;-to-Register" style="stroke:#181818;stroke-width:1;"/><polygon fill="#181818" points="134.05,55.49,125.3722,60.1478,130.9846,59.4401,131.6923,65.0525,134.05,55.49" style="stroke:#181818;stroke-width:1;"/></g><!--link ?? to CheckIn--><g class="link" data-entity-1=".." data-entity-2="CheckIn" data-source-line="13" data-uid="lnk10" id="link_.._CheckIn"><path d="M34.08,206.67 C54.21,196.87 87.9554,180.4364 115.7054,166.9264" fill="none" id="&#29992;&#25143;-to-CheckIn" style="stroke:#181818;stroke-width:1;"/><polygon fill="#181818" points="121.1,164.3,111.2571,164.6431,116.6045,166.4886,114.7589,171.836,121.1,164.3" style="stroke:#181818;stroke-width:1;"/></g><!--link Register to CheckIn--><g class="link" data-entity-1="Register" data-entity-2="CheckIn" data-source-line="15" data-uid="lnk11" id="link_Register_CheckIn"><path d="M153.43,58.32 C153.43,77.95 153.43,98.61 153.43,117.95" fill="none" id="Register-to-CheckIn" style="stroke:#181818;stroke-width:1;stroke-dasharray:7,7;"/><polygon fill="#181818" points="153.43,123.95,157.43,114.95,153.43,118.95,149.43,114.95,153.43,123.95" style="stroke:#181818;stroke-width:1;"/><text fill="#000000" font-family="sans-serif" font-size="13" lengthAdjust="spacing" textLength="61.1851" x="103.8375" y="88.2269">&#171;extend&#187;</text><text fill="#000000" font-family="sans-serif" font-size="13" lengthAdjust="spacing" textLength="65.0001" x="101.93" y="103.3597">&#23457;&#26680;&#36890;&#36807;&#21518;</text></g><!--SRC=[oqbDAr4eoLSeoapFA558oInAJIx9pC_ZuafCBialKdW-PSMpZkrSN1hFjkn-shNYQSVq5mjNnEGzcx_q-PnkYDYJ_GkVDQxNL4WiLl39B2w1ANqsOSxpBOjYyfukcVLixi8dkxS1zRnOlmYiBZWriIWv0wwoQ-dJ2Rr0bGjNFssRYMHSK6ewqC3K8fZ2vsltFUtO49FtP5VFyzrRdYze1AjopaXDplO4kXZYLWLTNJk8Gv3uK0kHHE1c8ud1JO99AkZ11HMi56niKYjAKlDIxEo0RbstyDc27IyRPhtOt_vqGXy0]--></g></svg>