<svg xmlns="http://www.w3.org/2000/svg" xmlns:xlink="http://www.w3.org/1999/xlink" contentStyleType="text/css" data-diagram-type="DESCRIPTION" height="214px" preserveAspectRatio="none" style="width:529px;height:214px;background:#FFFFFF;" version="1.1" viewBox="0 0 529 214" width="529px" zoomAndPan="magnify"><defs/><g><!--entity User--><g class="entity" data-entity="User" data-source-line="3" data-uid="ent0002" id="entity_User"><ellipse cx="40.9999" cy="142" fill="#F1F1F1" rx="8" ry="8" style="stroke:#181818;stroke-width:0.5;"/><path d="M40.9999,150 L40.9999,177 M27.9999,158 L53.9999,158 M40.9999,177 L27.9999,192 M40.9999,177 L53.9999,192" fill="none" style="stroke:#181818;stroke-width:0.5;"/><text fill="#000000" font-family="sans-serif" font-size="14" lengthAdjust="spacing" textLength="55.9998" x="13" y="206.4951">&#26222;&#36890;&#29992;&#25143;</text></g><!--entity Admin--><g class="entity" data-entity="Admin" data-source-line="4" data-uid="ent0003" id="entity_Admin"><ellipse cx="40.9998" cy="14" fill="#F1F1F1" rx="8" ry="8" style="stroke:#181818;stroke-width:0.5;"/><path d="M40.9998,22 L40.9998,49 M27.9998,30 L53.9998,30 M40.9998,49 L27.9998,64 M40.9998,49 L53.9998,64" fill="none" style="stroke:#181818;stroke-width:0.5;"/><text fill="#000000" font-family="sans-serif" font-size="14" lengthAdjust="spacing" textLength="69.9997" x="6" y="78.4951">&#31038;&#22242;&#31649;&#29702;&#21592;</text></g><!--entity ViewDetail--><g class="entity" data-entity="ViewDetail" data-source-line="6" data-uid="ent0004" id="entity_ViewDetail"><ellipse cx="198.5142" cy="108.6528" fill="#F1F1F1" rx="61.5142" ry="14.7028" style="stroke:#181818;stroke-width:0.5;"/><text fill="#000000" font-family="sans-serif" font-size="14" lengthAdjust="spacing" textLength="83.9996" x="156.5144" y="113.3013">&#26597;&#30475;&#31038;&#22242;&#35814;&#24773;</text></g><!--entity JoinRequest--><g class="entity" data-entity="JoinRequest" data-source-line="8" data-uid="ent0005" id="entity_JoinRequest"><ellipse cx="461.5442" cy="72.6528" fill="#F1F1F1" rx="61.5142" ry="14.7028" style="stroke:#181818;stroke-width:0.5;"/><text fill="#000000" font-family="sans-serif" font-size="14" lengthAdjust="spacing" textLength="83.9996" x="419.5444" y="77.3013">&#30003;&#35831;&#21152;&#20837;&#31038;&#22242;</text></g><!--entity EditClub--><g class="entity" data-entity="EditClub" data-source-line="9" data-uid="ent0006" id="entity_EditClub"><ellipse cx="461.5442" cy="144.6528" fill="#F1F1F1" rx="61.5142" ry="14.7028" style="stroke:#181818;stroke-width:0.5;"/><text fill="#000000" font-family="sans-serif" font-size="14" lengthAdjust="spacing" textLength="83.9996" x="419.5444" y="149.3013">&#32534;&#36753;&#31038;&#22242;&#20449;&#24687;</text></g><!--link User to ViewDetail--><g class="link" data-entity-1="User" data-entity-2="ViewDetail" data-source-line="11" data-uid="lnk7" id="link_User_ViewDetail"><path d="M69.44,160.53 C96.39,149.62 131.8992,135.2334 160.2292,123.7534" fill="none" id="User-to-ViewDetail" style="stroke:#181818;stroke-width:1;"/><polygon fill="#181818" points="165.79,121.5,155.9466,121.1729,161.156,123.3778,158.9511,128.5872,165.79,121.5" style="stroke:#181818;stroke-width:1;"/></g><!--link Admin to ViewDetail--><g class="link" data-entity-1="Admin" data-entity-2="ViewDetail" data-source-line="12" data-uid="lnk8" id="link_Admin_ViewDetail"><path d="M76.13,57.92 C103.13,69.2 134.9735,82.5175 161.0935,93.4275" fill="none" id="Admin-to-ViewDetail" style="stroke:#181818;stroke-width:1;"/><polygon fill="#181818" points="166.63,95.74,159.867,88.5803,162.0163,93.8129,156.7836,95.9622,166.63,95.74" style="stroke:#181818;stroke-width:1;"/></g><!--reverse link ViewDetail to JoinRequest--><g class="link" data-entity-1="ViewDetail" data-entity-2="JoinRequest" data-source-line="14" data-uid="lnk9" id="link_ViewDetail_JoinRequest"><path d="M258.5937,100.5002 C303.7637,94.2702 362.33,86.2 407.48,79.97" fill="none" id="ViewDetail-backto-JoinRequest" style="stroke:#181818;stroke-width:1;stroke-dasharray:7,7;"/><polygon fill="#181818" points="252.65,101.32,262.1121,104.0528,257.6031,100.6369,261.0191,96.1278,252.65,101.32" style="stroke:#181818;stroke-width:1;"/><text fill="#000000" font-family="sans-serif" font-size="13" lengthAdjust="spacing" textLength="61.1851" x="299.4375" y="66.7169">&#171;extend&#187;</text><text fill="#000000" font-family="sans-serif" font-size="13" lengthAdjust="spacing" textLength="78.0001" x="291.03" y="81.8497">&#38750;&#31649;&#29702;&#21592;&#21487;&#35265;</text></g><!--reverse link ViewDetail to EditClub--><g class="link" data-entity-1="ViewDetail" data-entity-2="EditClub" data-source-line="15" data-uid="lnk10" id="link_ViewDetail_EditClub"><path d="M238.6468,123.1628 C255.5068,128.9328 270.75,133.27 290.03,136.65 C326.08,142.97 367.03,145.05 399.76,145.52" fill="none" id="ViewDetail-backto-EditClub" style="stroke:#181818;stroke-width:1;stroke-dasharray:7,7;"/><polygon fill="#181818" points="232.97,121.22,240.19,127.9187,237.7006,122.839,242.7803,120.3496,232.97,121.22" style="stroke:#181818;stroke-width:1;"/><text fill="#000000" font-family="sans-serif" font-size="13" lengthAdjust="spacing" textLength="61.1851" x="299.4375" y="117.7169">&#171;extend&#187;</text><text fill="#000000" font-family="sans-serif" font-size="13" lengthAdjust="spacing" textLength="65.0001" x="297.53" y="132.8497">&#31649;&#29702;&#21592;&#21487;&#35265;</text></g><!--link Admin to User--><g class="link" data-entity-1="Admin" data-entity-2="User" data-source-line="17" data-uid="lnk11" id="link_Admin_User"><path d="M41,82.03 C41,98.23 41,99.05 41,115.25" fill="none" id="Admin-to-User" style="stroke:#181818;stroke-width:1;"/><polygon fill="none" points="41,133.25,47,115.25,35,115.25,41,133.25" style="stroke:#181818;stroke-width:1;"/><text fill="#000000" font-family="sans-serif" font-size="13" lengthAdjust="spacing" textLength="26" x="16.5" y="112.2169">&#32487;&#25215;</text></g><!--SRC=[oqbDAr4eoLSeoapFA558oInAJIx9pC_ZuafCBialKb1wDdFTouPPpwUiUDQnNKaXiLWXj3Yr22RvVCc-fxCNFL-tyFc4jgSJPu3b7LDoCu7QIujJanEBKu46p5_wV4utHEMBzSkUDRU2bOLbffQxf9OaPkOWgNq-PVEBzTkVTYrusheKeWEirYi_CoyejR0qjRW4IUsUQI_sJOIeUh9_uRF6zM2rhYcP9SuvfKbSN227AkZgsY5R1NOSkY0NWgrWewU7R9s2bOADJMf5IMfUYfrTJDxBkVFWddtQl_x5yaPqlJ3hqJIYwu8vfCOE79v0rSztBt_MkHy0]--></g></svg>