<svg xmlns="http://www.w3.org/2000/svg" xmlns:xlink="http://www.w3.org/1999/xlink" contentStyleType="text/css" data-diagram-type="DESCRIPTION" height="105px" preserveAspectRatio="none" style="width:237px;height:105px;background:#FFFFFF;" version="1.1" viewBox="0 0 237 105" width="237px" zoomAndPan="magnify"><defs/><g><!--entity Admin--><g class="entity" data-entity="Admin" data-source-line="3" data-uid="ent0002" id="entity_Admin"><ellipse cx="26.9999" cy="23.05" fill="#F1F1F1" rx="8" ry="8" style="stroke:#181818;stroke-width:0.5;"/><path d="M26.9999,31.05 L26.9999,58.05 M13.9999,39.05 L39.9999,39.05 M26.9999,58.05 L13.9999,73.05 M26.9999,58.05 L39.9999,73.05" fill="none" style="stroke:#181818;stroke-width:0.5;"/><text fill="#000000" font-family="sans-serif" font-size="14" lengthAdjust="spacing" textLength="41.9998" x="6" y="87.5451">&#31649;&#29702;&#21592;</text></g><!--entity Create--><g class="entity" data-entity="Create" data-source-line="5" data-uid="ent0003" id="entity_Create"><ellipse cx="169.5142" cy="20.7028" fill="#F1F1F1" rx="61.5142" ry="14.7028" style="stroke:#181818;stroke-width:0.5;"/><text fill="#000000" font-family="sans-serif" font-size="14" lengthAdjust="spacing" textLength="83.9996" x="127.5144" y="25.3513">&#29992;&#25143;&#36134;&#21495;&#31649;&#29702;</text></g><!--entity Search--><g class="entity" data-entity="Search" data-source-line="6" data-uid="ent0004" id="entity_Search"><ellipse cx="169.5142" cy="84.7028" fill="#F1F1F1" rx="61.5142" ry="14.7028" style="stroke:#181818;stroke-width:0.5;"/><text fill="#000000" font-family="sans-serif" font-size="14" lengthAdjust="spacing" textLength="83.9996" x="127.5144" y="89.3513">&#29992;&#25143;&#25968;&#25454;&#23548;&#20986;</text></g><!--link Admin to Create--><g class="link" data-entity-1="Admin" data-entity-2="Create" data-source-line="8" data-uid="lnk5" id="link_Admin_Create"><path d="M48.43,48.04 C68.07,43.57 92.5595,37.9912 117.8295,32.2412" fill="none" id="Admin-to-Create" style="stroke:#181818;stroke-width:1;"/><polygon fill="#181818" points="123.68,30.91,114.0168,29.0065,118.8046,32.0194,115.7918,36.8071,123.68,30.91" style="stroke:#181818;stroke-width:1;"/></g><!--link Admin to Search--><g class="link" data-entity-1="Admin" data-entity-2="Search" data-source-line="9" data-uid="lnk6" id="link_Admin_Search"><path d="M48.43,57.35 C68.07,61.82 92.56,67.3966 117.83,73.1566" fill="none" id="Admin-to-Search" style="stroke:#181818;stroke-width:1;"/><polygon fill="#181818" points="123.68,74.49,115.794,68.5899,118.805,73.3788,114.0161,76.3898,123.68,74.49" style="stroke:#181818;stroke-width:1;"/></g><!--SRC=[oqbDAr4eoLSeoapFA558oInAJIx9pC_ZuafCBialKb1wlcxXymbjJoVEK598B5PmJCdD1CgL5gSc9nQd0cMdh7ZMiVt5bcLF-xT3L8ALEHUb9fQaeYjxDdN3izvrJzVlUTg-2wmiE3MnA3b3WOiBRAo2hguTJ2T20A860000]--></g></svg>