<svg xmlns="http://www.w3.org/2000/svg" xmlns:xlink="http://www.w3.org/1999/xlink" contentStyleType="text/css" data-diagram-type="DESCRIPTION" height="169px" preserveAspectRatio="none" style="width:237px;height:169px;background:#FFFFFF;" version="1.1" viewBox="0 0 237 169" width="237px" zoomAndPan="magnify"><defs/><g><!--entity Admin--><g class="entity" data-entity="Admin" data-source-line="3" data-uid="ent0002" id="entity_Admin"><ellipse cx="26.9999" cy="54.87" fill="#F1F1F1" rx="8" ry="8" style="stroke:#181818;stroke-width:0.5;"/><path d="M26.9999,62.87 L26.9999,89.87 M13.9999,70.87 L39.9999,70.87 M26.9999,89.87 L13.9999,104.87 M26.9999,89.87 L39.9999,104.87" fill="none" style="stroke:#181818;stroke-width:0.5;"/><text fill="#000000" font-family="sans-serif" font-size="14" lengthAdjust="spacing" textLength="41.9998" x="6" y="119.3651">&#31649;&#29702;&#21592;</text></g><!--entity Create--><g class="entity" data-entity="Create" data-source-line="5" data-uid="ent0003" id="entity_Create"><ellipse cx="169.5078" cy="20.5236" fill="#F1F1F1" rx="42.5978" ry="14.5236" style="stroke:#181818;stroke-width:0.5;"/><text fill="#000000" font-family="sans-serif" font-size="14" lengthAdjust="spacing" textLength="55.9998" x="141.5079" y="25.1721">&#21019;&#24314;&#31038;&#22242;</text></g><!--entity Search--><g class="entity" data-entity="Search" data-source-line="6" data-uid="ent0004" id="entity_Search"><ellipse cx="169.5142" cy="84.5228" fill="#F1F1F1" rx="61.5142" ry="14.7028" style="stroke:#181818;stroke-width:0.5;"/><text fill="#000000" font-family="sans-serif" font-size="14" lengthAdjust="spacing" textLength="83.9996" x="127.5144" y="89.1713">&#31038;&#22242;&#20449;&#24687;&#26597;&#35810;</text></g><!--entity Status--><g class="entity" data-entity="Status" data-source-line="7" data-uid="ent0005" id="entity_Status"><ellipse cx="169.5142" cy="148.5228" fill="#F1F1F1" rx="61.5142" ry="14.7028" style="stroke:#181818;stroke-width:0.5;"/><text fill="#000000" font-family="sans-serif" font-size="14" lengthAdjust="spacing" textLength="83.9996" x="127.5144" y="153.1713">&#31038;&#22242;&#29366;&#24577;&#31649;&#29702;</text></g><!--link Admin to Create--><g class="link" data-entity-1="Admin" data-entity-2="Create" data-source-line="9" data-uid="lnk6" id="link_Admin_Create"><path d="M48.43,75.21 C73.4,63.84 110.1992,47.076 137.3492,34.716" fill="none" id="Admin-to-Create" style="stroke:#181818;stroke-width:1;"/><polygon fill="#181818" points="142.81,32.23,132.9615,32.3185,138.2594,34.3017,136.2762,39.5995,142.81,32.23" style="stroke:#181818;stroke-width:1;"/></g><!--link Admin to Search--><g class="link" data-entity-1="Admin" data-entity-2="Search" data-source-line="10" data-uid="lnk7" id="link_Admin_Search"><path d="M48.43,84.52 C64.04,84.52 80.39,84.52 101.6,84.52" fill="none" id="Admin-to-Search" style="stroke:#181818;stroke-width:1;"/><polygon fill="#181818" points="107.6,84.52,98.6,80.52,102.6,84.52,98.6,88.52,107.6,84.52" style="stroke:#181818;stroke-width:1;"/></g><!--link Admin to Status--><g class="link" data-entity-1="Admin" data-entity-2="Status" data-source-line="11" data-uid="lnk8" id="link_Admin_Status"><path d="M48.43,93.82 C72.41,104.74 106.8801,120.4422 134.0501,132.8222" fill="none" id="Admin-to-Status" style="stroke:#181818;stroke-width:1;"/><polygon fill="#181818" points="139.51,135.31,132.9787,127.9383,134.9601,133.2368,129.6616,135.2182,139.51,135.31" style="stroke:#181818;stroke-width:1;"/></g><!--SRC=[oqbDAr4eoLSeoapFA558oInAJIx9pC_ZuafCBialKb1wlcxXymbjJoVEK598B5PmJCdD1CgL5gSc9nQdAYWzxPZzTFUkvqlsFPsz2Ap0kIWriIGLeG0YzMJ_mcUDwv_DN_fYFKHPS6fYKNA60hgwvrtRdZKqGgo4g2j9B2ajLk3Y0bkieAjh1xC18G0n2ra0h0a0]--></g></svg>