<svg width="48" height="48" viewBox="0 0 48 48" fill="none" xmlns="http://www.w3.org/2000/svg">
  <rect width="48" height="48" rx="12" fill="url(#paint0_linear)" />
  <path
    d="M16 18C16 14.6863 18.6863 12 22 12H26C29.3137 12 32 14.6863 32 18V30C32 33.3137 29.3137 36 26 36H22C18.6863 36 16 33.3137 16 30V18Z"
    fill="white"
    opacity="0.9"
  />
  <path
    d="M21 20C21 19.4477 21.4477 19 22 19H26C26.5523 19 27 19.4477 27 20V28C27 28.5523 26.5523 29 26 29H22C21.4477 29 21 28.5523 21 28V20Z"
    fill="#94A3B8"
  />
  <path
    d="M18 22C18 21.4477 18.4477 21 19 21H29C29.5523 21 30 21.4477 30 22V24C30 24.5523 29.5523 25 29 25H19C18.4477 25 18 24.5523 18 24V22Z"
    fill="white"
    opacity="0.7"
  />
  <defs>
    <linearGradient id="paint0_linear" x1="6.5" y1="6" x2="40" y2="42" gradientUnits="userSpaceOnUse">
      <stop stop-color="#94A3B8" />
      <stop offset="1" stop-color="#6366F1" />
    </linearGradient>
  </defs>
</svg>

